<?xml version="1.0" standalone="no"?>
<!DOCTYPE svg PUBLIC "-//W3C//DTD SVG 20010904//EN"
 "http://www.w3.org/TR/2001/REC-SVG-20010904/DTD/svg10.dtd">
<svg version="1.0" xmlns="http://www.w3.org/2000/svg"
 width="1024.000000pt" height="1024.000000pt" viewBox="0 0 1024.000000 1024.000000"
 preserveAspectRatio="xMidYMid meet">

<g transform="translate(0.000000,1024.000000) scale(0.100000,-0.100000)"
fill="#000000" stroke="none">
<path d="M0 5120 l0 -5120 5120 0 5120 0 0 5120 0 5120 -5120 0 -5120 0 0
-5120z m5130 2000 c419 -32 787 -177 1112 -439 107 -86 292 -282 370 -392 188
-264 298 -526 350 -829 29 -167 31 -491 4 -655 -75 -463 -259 -822 -583 -1136
-313 -304 -713 -490 -1155 -538 -61 -7 -423 -11 -974 -11 l-877 0 461 460 461
460 348 0 c389 0 482 9 635 60 349 117 599 383 688 731 49 192 47 412 -5 592
-84 288 -290 532 -558 662 -213 102 -298 115 -761 115 l-350 0 -458 459 c-252
252 -458 461 -458 465 0 10 1604 7 1750 -4z m-1302 -885 l412 -417 0 -707 0
-708 -182 -178 c-101 -98 -319 -312 -484 -476 -166 -165 -305 -299 -310 -299
-5 0 -11 730 -13 1677 l-3 1677 83 -76 c46 -42 270 -264 497 -493z"/>
</g>
</svg>
